<svg version="1.1" id="Layer_1" xmlns="http://www.w3.org/2000/svg" xmlns:xlink="http://www.w3.org/1999/xlink" x="0px" y="0px"
	 width="100%" viewBox="0 0 512 512" enable-background="new 0 0 512 512" xml:space="preserve">
<path fill="#000000" opacity="1.000000" stroke="none" 
	d="
M1.000000,186.000000 
	C1.000000,124.000000 1.000000,62.500000 1.000000,1.000000 
	C171.666672,1.000000 342.333344,1.000000 513.000000,1.000000 
	C513.000000,171.666672 513.000000,342.333344 513.000000,513.000000 
	C342.333344,513.000000 171.666672,513.000000 1.000000,513.000000 
	C1.000000,404.166656 1.000000,295.333344 1.000000,186.000000 
M441.028015,55.997070 
	C441.018677,50.500473 441.024109,45.003803 440.996552,39.507298 
	C440.955322,31.291882 434.809113,25.010607 426.684326,25.009604 
	C313.585754,24.995623 200.487213,24.996078 87.388649,25.008728 
	C79.217049,25.009642 73.059738,31.241989 73.000443,39.434467 
	C72.958260,45.262634 72.919594,51.090828 72.279091,57.222645 
	C60.917786,70.636673 49.521114,84.021065 38.229382,97.493408 
	C36.308361,99.785400 34.837288,102.454506 33.038441,105.886673 
	C33.026119,109.351448 33.183678,112.826775 32.969292,116.278999 
	C32.352634,126.208923 33.708187,135.500183 40.996563,143.996460 
	C40.997532,208.980148 40.993763,273.963837 41.006054,338.947510 
	C41.007439,346.275543 41.099468,353.603577 41.022121,361.869995 
	C41.012241,372.696869 41.301540,383.534180 40.922989,394.348145 
	C40.342030,410.944275 55.157890,425.228119 71.442688,425.111572 
	C111.582466,424.824371 151.725967,425.057404 191.965500,425.895966 
	C188.443604,440.327240 184.914352,454.756744 181.403107,469.190613 
	C179.843033,475.603790 178.319229,482.025757 176.713348,488.717041 
	C230.605713,488.717041 283.671509,488.717041 336.911377,488.717041 
	C336.911377,487.609009 337.081696,486.742859 336.885742,485.969482 
	C334.078491,474.888641 331.118256,463.845581 328.409180,452.741150 
	C326.168274,443.555634 324.209869,434.301147 323.045654,425.011017 
	C363.362061,425.015991 403.678711,424.945862 443.994781,425.066132 
	C458.361664,425.109009 472.414856,411.119263 472.896576,397.902649 
	C473.345154,385.595673 472.901550,373.256226 472.988556,360.011505 
	C473.006348,287.694489 473.024139,215.377457 473.625092,142.694443 
	C475.446686,139.432175 477.580292,136.302124 479.029419,132.882034 
	C482.864594,123.830666 480.419891,114.278763 480.948761,104.255203 
	C480.760681,103.814804 480.664185,103.298416 480.371063,102.945175 
	C473.672729,94.873070 467.022064,86.759834 460.216888,78.778442 
	C453.939880,71.416550 447.492737,64.199730 441.028015,55.997070 
z"/>
<path fill="#E9EEF2" opacity="1.000000" stroke="none" 
	d="
M473.041931,143.060425 
	C473.024139,215.377457 473.006348,287.694489 472.461090,360.495605 
	C445.606995,360.945740 419.280396,360.911804 392.935913,360.471436 
	C387.620667,323.147003 382.323242,286.228973 376.971466,248.932297 
	C371.383453,248.932297 366.253113,248.932297 361.072571,248.472336 
	C360.488281,242.408203 360.768799,236.573257 359.259583,231.245300 
	C355.493378,217.949448 343.060150,209.110687 329.330566,209.002823 
	C314.707245,208.887924 303.129303,217.728683 297.546753,232.960846 
	C294.429169,232.963455 291.757294,232.937378 289.049316,232.448334 
	C289.008484,224.344223 289.084351,216.702026 288.982849,209.062164 
	C288.743927,191.077576 274.689087,177.018021 257.030914,177.003983 
	C239.373901,176.989944 225.259155,191.056992 225.014221,208.994141 
	C224.905350,216.965485 224.943283,224.938828 224.467010,232.948822 
	C221.310242,232.935913 218.601013,232.885437 215.836121,232.486176 
	C210.117462,216.480743 197.320160,207.741577 182.039856,209.096237 
	C167.636551,210.373154 155.907288,221.226196 153.458908,235.989105 
	C152.760101,240.202698 153.069321,244.583481 152.456146,248.932526 
	C147.059204,248.977478 142.122406,248.977478 137.019836,248.977478 
	C131.633835,286.689911 126.331940,323.813477 120.559975,360.959167 
	C93.776428,360.964752 67.462952,360.948181 41.149467,360.931610 
	C41.099468,353.603577 41.007439,346.275543 41.006054,338.947510 
	C40.993763,273.963837 40.997532,208.980148 41.317642,143.505310 
	C49.813499,150.768753 59.351925,154.612244 70.649673,152.399536 
	C85.303291,149.529587 93.446419,139.973221 97.156586,126.154419 
	C100.924568,141.766098 111.578583,151.694534 126.329033,152.915894 
	C138.077713,153.888687 152.835510,147.991394 158.811646,132.405930 
	C159.624725,130.285492 160.296387,128.110840 161.063873,126.340881 
	C161.803802,128.721725 162.452576,130.747025 163.232681,132.720413 
	C169.032532,147.391830 184.629822,155.707794 199.993896,152.113403 
	C213.961929,148.845596 221.593353,139.377151 225.157166,126.154922 
	C228.922073,141.763596 239.579391,151.694916 254.329330,152.915924 
	C266.078400,153.888504 280.835480,147.991104 286.811676,132.405899 
	C287.624756,130.285492 288.296387,128.110840 289.063843,126.340897 
	C289.803772,128.721634 290.452545,130.746841 291.232605,132.720139 
	C297.032166,147.390991 312.628998,155.707260 327.991669,152.113907 
	C341.959045,148.846924 349.591522,139.380417 353.156372,126.157654 
	C356.926697,141.768311 367.581268,151.695816 382.330353,152.915985 
	C394.080139,153.888031 408.836243,147.990005 414.812012,132.405167 
	C415.625061,130.284790 416.296936,128.110260 417.064575,126.340370 
	C417.747772,128.557968 418.365723,130.409210 419.058746,132.231918 
	C424.808167,147.352524 440.666443,156.166275 456.253571,151.858475 
	C462.205566,150.213501 467.466217,146.066956 473.041931,143.060425 
z"/>
<path fill="#9AA3A8" opacity="1.000000" stroke="none" 
	d="
M41.085793,361.400818 
	C67.462952,360.948181 93.776428,360.964752 121.025902,360.978790 
	C145.658905,360.950867 169.355911,360.925507 193.517227,360.932587 
	C236.314804,360.923798 278.648071,360.882507 321.447876,360.900146 
	C345.594208,360.932007 369.273987,360.904938 392.953766,360.877869 
	C419.280396,360.911804 445.606995,360.945740 472.392151,360.955383 
	C472.901550,373.256226 473.345154,385.595673 472.896576,397.902649 
	C472.414856,411.119263 458.361664,425.109009 443.994781,425.066132 
	C403.678711,424.945862 363.362061,425.015991 322.109375,425.020874 
	C278.071411,425.047546 234.969681,425.064423 191.867966,425.081268 
	C151.725967,425.057404 111.582466,424.824371 71.442688,425.111572 
	C55.157890,425.228119 40.342030,410.944275 40.922989,394.348145 
	C41.301540,383.534180 41.012241,372.696869 41.085793,361.400818 
M272.225708,396.434631 
	C273.799561,390.258301 271.563995,385.562134 266.236084,385.171204 
	C260.124420,384.722778 253.941925,384.822754 247.815308,385.151855 
	C244.136414,385.349487 241.245651,387.937103 241.315506,391.526642 
	C241.369141,394.282623 243.242981,399.240753 244.647339,399.364624 
	C252.879410,400.090698 261.213196,399.752258 269.507141,399.548737 
	C270.318451,399.528839 271.092377,397.986176 272.225708,396.434631 
z"/>
<path fill="#2D85CC" opacity="1.000000" stroke="none" 
	d="
M33.158344,104.949394 
	C34.837288,102.454506 36.308361,99.785400 38.229382,97.493408 
	C49.521114,84.021065 60.917786,70.636673 73.055313,57.095673 
	C170.109955,56.979137 266.388367,56.995792 362.666779,56.995899 
	C388.818024,56.995930 414.969269,56.946014 441.120514,56.919018 
	C447.492737,64.199730 453.939880,71.416550 460.216888,78.778442 
	C467.022064,86.759834 473.672729,94.873070 480.371063,102.945175 
	C480.664185,103.298416 480.760681,103.814804 480.437775,104.617874 
	C458.929901,104.994644 437.933014,105.008736 416.472046,105.014427 
	C395.026855,105.011696 374.045746,105.017372 352.591980,105.015289 
	C331.058014,105.012703 309.996735,105.017883 288.471344,105.014618 
	C267.026367,105.011803 246.045471,105.017426 224.591919,105.015289 
	C203.057999,105.012711 181.996719,105.017883 160.471359,105.014626 
	C139.026138,105.011734 118.045013,105.017281 96.591270,105.015266 
	C75.131889,104.988266 54.145115,104.968834 33.158344,104.949394 
z"/>
<path fill="#1261A0" opacity="1.000000" stroke="none" 
	d="
M441.074280,56.458046 
	C414.969269,56.946014 388.818024,56.995930 362.666779,56.995899 
	C266.388367,56.995792 170.109955,56.979137 73.355453,56.943855 
	C72.919594,51.090828 72.958260,45.262634 73.000443,39.434467 
	C73.059738,31.241989 79.217049,25.009642 87.388649,25.008728 
	C200.487213,24.996078 313.585754,24.995623 426.684326,25.009604 
	C434.809113,25.010607 440.955322,31.291882 440.996552,39.507298 
	C441.024109,45.003803 441.018677,50.500473 441.074280,56.458046 
z"/>
<path fill="#757C80" opacity="1.000000" stroke="none" 
	d="
M191.916733,425.488617 
	C234.969681,425.064423 278.071411,425.047546 321.649719,425.053955 
	C324.209869,434.301147 326.168274,443.555634 328.409180,452.741150 
	C331.118256,463.845581 334.078491,474.888641 336.885742,485.969482 
	C337.081696,486.742859 336.911377,487.609009 336.911377,488.717041 
	C283.671509,488.717041 230.605713,488.717041 176.713348,488.717041 
	C178.319229,482.025757 179.843033,475.603790 181.403107,469.190613 
	C184.914352,454.756744 188.443604,440.327240 191.916733,425.488617 
z"/>
<path fill="#1362A0" opacity="1.000000" stroke="none" 
	d="
M33.098392,105.418030 
	C54.145115,104.968834 75.131889,104.988266 96.567238,105.481117 
	C96.972778,112.597542 96.929749,119.240547 96.886719,125.883560 
	C93.446419,139.973221 85.303291,149.529587 70.649673,152.399536 
	C59.351925,154.612244 49.813499,150.768753 41.291409,143.041626 
	C33.708187,135.500183 32.352634,126.208923 32.969292,116.278999 
	C33.183678,112.826775 33.026119,109.351448 33.098392,105.418030 
z"/>
<path fill="#1362A0" opacity="1.000000" stroke="none" 
	d="
M416.936096,105.022827 
	C437.933014,105.008736 458.929901,104.994644 480.384460,104.964828 
	C480.419891,114.278763 482.864594,123.830666 479.029419,132.882034 
	C477.580292,136.302124 475.446686,139.432175 473.333496,142.877441 
	C467.466217,146.066956 462.205566,150.213501 456.253571,151.858475 
	C440.666443,156.166275 424.808167,147.352524 419.058746,132.231918 
	C418.365723,130.409210 417.747772,128.557968 417.140137,125.880112 
	C417.102203,118.367798 417.019165,111.695312 416.936096,105.022827 
z"/>
<path fill="#D13330" opacity="1.000000" stroke="none" 
	d="
M320.981323,360.841248 
	C278.648071,360.882507 236.314804,360.923798 193.528198,360.521973 
	C194.991562,345.071228 196.972366,330.071472 198.806763,315.053772 
	C200.599960,300.373291 202.243790,285.674622 204.085846,270.598022 
	C205.836395,257.916382 207.454285,245.620682 209.086990,233.212311 
	C211.629517,233.071335 213.760651,232.953156 215.891800,232.834961 
	C218.601013,232.885437 221.310242,232.935913 224.493866,233.420807 
	C224.979004,238.688248 224.920883,243.522644 225.018738,248.353897 
	C225.129242,253.811447 228.336624,257.115295 233.220627,256.988831 
	C237.879272,256.868225 240.867386,253.645309 240.980881,248.410095 
	C241.092819,243.246048 241.055893,238.078751 241.545029,232.950821 
	C252.309097,232.963486 262.612396,232.938202 272.940796,233.386078 
	C272.977448,238.692032 272.920410,243.526215 273.018707,248.357269 
	C273.129761,253.813828 276.338470,257.116852 281.223480,256.988831 
	C285.881744,256.866699 288.867706,253.643600 288.980988,248.407761 
	C289.092712,243.243942 289.056641,238.076935 289.085419,232.911316 
	C291.757294,232.937378 294.429169,232.963455 297.981934,232.982788 
	C305.201447,233.067520 305.302277,233.423935 306.040192,240.101639 
	C307.180695,250.422638 308.671844,260.704865 310.004211,271.439575 
	C310.757141,278.639801 311.450348,285.412720 312.295837,292.166626 
	C315.161957,315.061798 318.081909,337.950226 320.981323,360.841248 
M235.719742,273.431030 
	C231.979965,272.342651 228.783844,273.179840 226.448120,276.349365 
	C223.896713,279.811554 224.763184,284.958954 228.169189,287.462830 
	C231.810196,290.139465 237.125488,289.263306 239.624786,285.574554 
	C242.361252,281.535767 241.181152,277.171600 235.719742,273.431030 
M280.601654,273.008850 
	C274.540009,274.479858 271.613159,278.716431 273.425385,283.626587 
	C274.871277,287.544067 277.864594,289.321075 281.993195,288.940796 
	C285.993713,288.572388 289.017609,285.254272 288.960510,281.195190 
	C288.891632,276.297058 286.259338,273.570312 280.601654,273.008850 
z"/>
<path fill="#F7B030" opacity="1.000000" stroke="none" 
	d="
M321.447876,360.900146 
	C318.081909,337.950226 315.161957,315.061798 312.295837,292.166626 
	C311.450348,285.412720 310.757141,278.639801 310.318512,271.249634 
	C311.429718,268.360107 312.721741,266.135376 312.899078,263.825043 
	C313.278320,258.884979 313.080780,253.900681 313.578308,248.961823 
	C324.318268,248.970947 334.599365,248.952728 344.917847,249.405533 
	C344.969788,254.700104 344.909271,259.525330 345.018860,264.346710 
	C345.141602,269.747864 348.416290,273.115662 353.223114,272.985718 
	C357.833618,272.861145 360.854431,269.600098 360.981903,264.397064 
	C361.108154,259.244080 361.082031,254.087372 361.122772,248.932297 
	C366.253113,248.932297 371.383453,248.932297 376.971466,248.932297 
	C382.323242,286.228973 387.620667,323.147003 392.935913,360.471436 
	C369.273987,360.904938 345.594208,360.932007 321.447876,360.900146 
M360.990875,296.602631 
	C360.605621,292.445648 358.320557,289.393127 354.280762,289.287933 
	C351.700043,289.220703 347.977448,290.566437 346.745026,292.524078 
	C345.382446,294.688385 345.189728,298.951294 346.495911,301.050476 
	C347.800842,303.147583 351.594727,304.703796 354.289337,304.691620 
	C358.309082,304.673523 360.607574,301.548035 360.990875,296.602631 
z"/>
<path fill="#2E85CC" opacity="1.000000" stroke="none" 
	d="
M203.953186,270.983917 
	C202.243790,285.674622 200.599960,300.373291 198.806763,315.053772 
	C196.972366,330.071472 194.991562,345.071228 193.063873,360.489502 
	C169.355911,360.925507 145.658905,360.950867 121.495964,360.956635 
	C126.331940,323.813477 131.633835,286.689911 137.019836,248.977478 
	C142.122406,248.977478 147.059204,248.977478 152.480804,249.407104 
	C152.976425,254.631363 152.928528,259.427032 153.013565,264.220367 
	C153.110260,269.671356 156.171112,272.977844 160.977615,272.990784 
	C165.792023,273.003784 168.883865,269.699524 168.986664,264.265747 
	C169.083588,259.142120 169.054993,254.016159 169.542480,248.936798 
	C180.308350,248.951996 190.613358,248.921631 200.941864,249.365845 
	C200.976074,254.601471 200.673935,259.392731 201.129456,264.110809 
	C201.357285,266.470734 202.967957,268.697113 203.953186,270.983917 
M155.577606,302.972992 
	C161.878845,306.612457 168.182693,304.378784 168.924042,298.143524 
	C169.381454,294.296295 167.881714,291.289856 164.215668,289.691925 
	C160.800903,288.203461 157.558334,288.816498 155.135132,291.554688 
	C152.087067,294.998871 152.225906,298.767395 155.577606,302.972992 
z"/>
<path fill="#972624" opacity="1.000000" stroke="none" 
	d="
M289.049316,232.448334 
	C289.056641,238.076935 289.092712,243.243942 288.980988,248.407761 
	C288.867706,253.643600 285.881744,256.866699 281.223480,256.988831 
	C276.338470,257.116852 273.129761,253.813828 273.018707,248.357269 
	C272.920410,243.526215 272.977448,238.692032 272.977539,232.922791 
	C272.991486,224.346573 273.109467,216.704620 272.966400,209.067535 
	C272.794189,199.873993 265.640656,192.890915 256.769806,193.007614 
	C248.071457,193.122040 241.186127,199.991318 241.036713,209.000458 
	C240.904556,216.968811 241.057312,224.941895 241.084274,232.912888 
	C241.055893,238.078751 241.092819,243.246048 240.980881,248.410095 
	C240.867386,253.645309 237.879272,256.868225 233.220627,256.988831 
	C228.336624,257.115295 225.129242,253.811447 225.018738,248.353897 
	C224.920883,243.522644 224.979004,238.688248 224.941422,233.383255 
	C224.943283,224.938828 224.905350,216.965485 225.014221,208.994141 
	C225.259155,191.056992 239.373901,176.989944 257.030914,177.003983 
	C274.689087,177.018021 288.743927,191.077576 288.982849,209.062164 
	C289.084351,216.702026 289.008484,224.344223 289.049316,232.448334 
z"/>
<path fill="#1362A0" opacity="1.000000" stroke="none" 
	d="
M160.935440,105.023064 
	C181.996719,105.017883 203.057999,105.012711 224.567856,105.481125 
	C224.973419,112.597839 224.930405,119.240959 224.887390,125.884079 
	C221.593353,139.377151 213.961929,148.845596 199.993896,152.113403 
	C184.629822,155.707794 169.032532,147.391830 163.232681,132.720413 
	C162.452576,130.747025 161.803802,128.721725 161.139343,125.880577 
	C161.101456,118.368149 161.018448,111.695610 160.935440,105.023064 
z"/>
<path fill="#1362A0" opacity="1.000000" stroke="none" 
	d="
M288.935425,105.023056 
	C309.996735,105.017883 331.058014,105.012703 352.567871,105.481117 
	C352.973083,112.599136 352.929688,119.243568 352.886322,125.887993 
	C349.591522,139.380417 341.959045,148.846924 327.991669,152.113907 
	C312.628998,155.707260 297.032166,147.390991 291.232605,132.720139 
	C290.452545,130.746841 289.803772,128.721634 289.139343,125.880600 
	C289.101471,118.368164 289.018463,111.695618 288.935425,105.023056 
z"/>
<path fill="#A3D4F7" opacity="1.000000" stroke="none" 
	d="
M288.471375,105.014618 
	C289.018463,111.695618 289.101471,118.368164 289.109009,125.501015 
	C288.296387,128.110840 287.624756,130.285492 286.811676,132.405899 
	C280.835480,147.991104 266.078400,153.888504 254.329330,152.915924 
	C239.579391,151.694916 228.922073,141.763596 225.157181,126.154922 
	C224.930405,119.240959 224.973419,112.597839 225.040497,105.488884 
	C246.045471,105.017426 267.026367,105.011803 288.471375,105.014618 
z"/>
<path fill="#A3D4F7" opacity="1.000000" stroke="none" 
	d="
M160.471359,105.014626 
	C161.018448,111.695610 161.101456,118.368149 161.108994,125.500992 
	C160.296387,128.110840 159.624725,130.285492 158.811646,132.405930 
	C152.835510,147.991394 138.077713,153.888687 126.329033,152.915894 
	C111.578583,151.694534 100.924568,141.766098 97.156593,126.154419 
	C96.929749,119.240547 96.972778,112.597542 97.039848,105.488678 
	C118.045013,105.017281 139.026138,105.011734 160.471359,105.014626 
z"/>
<path fill="#A3D4F7" opacity="1.000000" stroke="none" 
	d="
M353.156372,126.157654 
	C352.929688,119.243568 352.973083,112.599136 353.040527,105.488876 
	C374.045746,105.017372 395.026855,105.011696 416.472046,105.014420 
	C417.019165,111.695312 417.102203,118.367798 417.109711,125.500534 
	C416.296936,128.110260 415.625061,130.284790 414.812012,132.405167 
	C408.836243,147.990005 394.080139,153.888031 382.330353,152.915985 
	C367.581268,151.695816 356.926697,141.768311 353.156372,126.157654 
z"/>
<path fill="#BE6310" opacity="1.000000" stroke="none" 
	d="
M361.072571,248.472336 
	C361.082031,254.087372 361.108154,259.244080 360.981903,264.397064 
	C360.854431,269.600098 357.833618,272.861145 353.223114,272.985718 
	C348.416290,273.115662 345.141602,269.747864 345.018860,264.346710 
	C344.909271,259.525330 344.969788,254.700104 344.968689,248.949799 
	C344.978333,245.368073 345.111237,242.704544 344.945282,240.059753 
	C344.421814,231.717010 337.516418,225.140213 329.274384,225.008148 
	C320.763916,224.871780 313.591187,231.420425 313.062561,239.981644 
	C312.879059,242.953415 313.089203,245.949509 313.119507,248.934494 
	C313.080780,253.900681 313.278320,258.884979 312.899078,263.825043 
	C312.721741,266.135376 311.429718,268.360107 310.328613,270.813599 
	C308.671844,260.704865 307.180695,250.422638 306.040192,240.101639 
	C305.302277,233.423935 305.201447,233.067520 298.427673,232.954102 
	C303.129303,217.728683 314.707245,208.887924 329.330566,209.002823 
	C343.060150,209.110687 355.493378,217.949448 359.259583,231.245300 
	C360.768799,236.573257 360.488281,242.408203 361.072571,248.472336 
z"/>
<path fill="#1562A1" opacity="1.000000" stroke="none" 
	d="
M204.085846,270.598022 
	C202.967957,268.697113 201.357285,266.470734 201.129456,264.110809 
	C200.673935,259.392731 200.976074,254.601471 200.976501,248.913239 
	C200.981796,245.334534 201.114532,242.674103 200.944595,240.033142 
	C200.396622,231.516586 193.223419,224.902954 184.780594,225.008667 
	C176.497391,225.112381 169.589127,231.601501 169.062515,239.946976 
	C168.875168,242.916168 169.064331,245.909119 169.081604,248.891235 
	C169.054993,254.016159 169.083588,259.142120 168.986664,264.265747 
	C168.883865,269.699524 165.792023,273.003784 160.977615,272.990784 
	C156.171112,272.977844 153.110260,269.671356 153.013565,264.220367 
	C152.928528,259.427032 152.976425,254.631363 152.940948,249.362152 
	C153.069321,244.583481 152.760101,240.202698 153.458908,235.989105 
	C155.907288,221.226196 167.636551,210.373154 182.039856,209.096237 
	C197.320160,207.741577 210.117462,216.480743 215.836121,232.486191 
	C213.760651,232.953156 211.629517,233.071335 209.086990,233.212311 
	C207.454285,245.620682 205.836395,257.916382 204.085846,270.598022 
z"/>
<path fill="#767D81" opacity="1.000000" stroke="none" 
	d="
M272.054688,396.792480 
	C271.092377,397.986176 270.318451,399.528839 269.507141,399.548737 
	C261.213196,399.752258 252.879410,400.090698 244.647339,399.364624 
	C243.242981,399.240753 241.369141,394.282623 241.315506,391.526642 
	C241.245651,387.937103 244.136414,385.349487 247.815308,385.151855 
	C253.941925,384.822754 260.124420,384.722778 266.236084,385.171204 
	C271.563995,385.562134 273.799561,390.258301 272.054688,396.792480 
z"/>
<path fill="#E8EDF1" opacity="1.000000" stroke="none" 
	d="
M241.545029,232.950821 
	C241.057312,224.941895 240.904556,216.968811 241.036713,209.000458 
	C241.186127,199.991318 248.071457,193.122040 256.769806,193.007614 
	C265.640656,192.890915 272.794189,199.873993 272.966400,209.067535 
	C273.109467,216.704620 272.991486,224.346573 272.952454,232.449646 
	C262.612396,232.938202 252.309097,232.963486 241.545029,232.950821 
z"/>
<path fill="#992624" opacity="1.000000" stroke="none" 
	d="
M236.075836,273.598938 
	C241.181152,277.171600 242.361252,281.535767 239.624786,285.574554 
	C237.125488,289.263306 231.810196,290.139465 228.169189,287.462830 
	C224.763184,284.958954 223.896713,279.811554 226.448120,276.349365 
	C228.783844,273.179840 231.979965,272.342651 236.075836,273.598938 
z"/>
<path fill="#992624" opacity="1.000000" stroke="none" 
	d="
M280.996704,273.008850 
	C286.259338,273.570312 288.891632,276.297058 288.960510,281.195190 
	C289.017609,285.254272 285.993713,288.572388 281.993195,288.940796 
	C277.864594,289.321075 274.871277,287.544067 273.425385,283.626587 
	C271.613159,278.716431 274.540009,274.479858 280.996704,273.008850 
z"/>
<path fill="#E9ECEF" opacity="1.000000" stroke="none" 
	d="
M313.578308,248.961823 
	C313.089203,245.949509 312.879059,242.953415 313.062561,239.981644 
	C313.591187,231.420425 320.763916,224.871780 329.274384,225.008148 
	C337.516418,225.140213 344.421814,231.717010 344.945282,240.059753 
	C345.111237,242.704544 344.978333,245.368073 344.931335,248.478760 
	C334.599365,248.952728 324.318268,248.970947 313.578308,248.961823 
z"/>
<path fill="#C06610" opacity="1.000000" stroke="none" 
	d="
M360.990967,296.996765 
	C360.607574,301.548035 358.309082,304.673523 354.289337,304.691620 
	C351.594727,304.703796 347.800842,303.147583 346.495911,301.050476 
	C345.189728,298.951294 345.382446,294.688385 346.745026,292.524078 
	C347.977448,290.566437 351.700043,289.220703 354.280762,289.287933 
	C358.320557,289.393127 360.605621,292.445648 360.990967,296.996765 
z"/>
<path fill="#E7ECF1" opacity="1.000000" stroke="none" 
	d="
M169.542480,248.936798 
	C169.064331,245.909119 168.875168,242.916168 169.062515,239.946976 
	C169.589127,231.601501 176.497391,225.112381 184.780594,225.008667 
	C193.223419,224.902954 200.396622,231.516586 200.944595,240.033142 
	C201.114532,242.674103 200.981796,245.334534 200.953003,248.438660 
	C190.613358,248.921631 180.308350,248.951996 169.542480,248.936798 
z"/>
<path fill="#1362A0" opacity="1.000000" stroke="none" 
	d="
M155.301086,302.696106 
	C152.225906,298.767395 152.087067,294.998871 155.135132,291.554688 
	C157.558334,288.816498 160.800903,288.203461 164.215668,289.691925 
	C167.881714,291.289856 169.381454,294.296295 168.924042,298.143524 
	C168.182693,304.378784 161.878845,306.612457 155.301086,302.696106 
z"/>
</svg>